<?xml version="1.0" encoding="utf-8"?>
<!-- Generator: Adobe Illustrator 24.1.2, SVG Export Plug-In . SVG Version: 6.00 Build 0)  -->
<svg version="1.1" xmlns="http://www.w3.org/2000/svg" xmlns:xlink="http://www.w3.org/1999/xlink" x="0px" y="0px"
	 viewBox="0 0 828 1792" style="enable-background:new 0 0 828 1792;" xml:space="preserve">
<style type="text/css">
	.st0{display:none;}
	.st1{display:inline;}
	.st2{fill:none;stroke:#000000;stroke-width:10;stroke-miterlimit:10;}
	.st3{display:inline;fill:none;stroke:#000000;stroke-width:2;stroke-miterlimit:10;}
	.st4{stroke:#000000;stroke-width:2;stroke-miterlimit:10;}
	.st5{fill:none;stroke:#000000;stroke-width:2;stroke-miterlimit:10;}
	.st6{fill:#202020;}
	.st7{fill:none;stroke:#000000;stroke-width:2;stroke-miterlimit:10;stroke-dasharray:2.0572,8.229;}
	.st8{clip-path:url(#SVGID_2_);}
	.st9{clip-path:url(#SVGID_6_);}
	.st10{fill:none;stroke:#000000;stroke-miterlimit:10;}
	.st11{display:inline;fill:#F9F9F9;}
	.st12{clip-path:url(#SVGID_16_);fill:none;stroke:#000000;stroke-width:2;stroke-miterlimit:10;}
	.st13{fill:none;stroke:#000000;stroke-width:7;stroke-miterlimit:10;}
	.st14{display:inline;fill:none;stroke:#000000;stroke-width:7;stroke-miterlimit:10;}
	.st15{fill:#EFEFEF;}
	.st16{fill:none;stroke:#000000;stroke-width:0.5;stroke-miterlimit:10;}
	.st17{opacity:0.05;}
	.st18{stroke:#002BE2;stroke-miterlimit:10;}
	.st19{fill:none;stroke:#FFFFFF;stroke-width:0.5;stroke-miterlimit:10;}
	.st20{fill:none;stroke:#002BE2;stroke-width:2;stroke-miterlimit:10;}
	.st21{display:inline;fill:none;}
	.st22{fill:none;stroke:#000000;stroke-width:2;stroke-miterlimit:10;stroke-dasharray:1.995,9.9749;}
	.st23{fill:none;stroke:#000000;stroke-width:2;stroke-miterlimit:10;stroke-dasharray:2.0195,10.0976;}
	.st24{display:inline;opacity:0.05;}
	.st25{display:inline;fill:none;stroke:#000000;stroke-width:20;stroke-miterlimit:10;}
	.st26{fill:none;stroke:#FFFFFF;stroke-width:2;stroke-miterlimit:10;}
	.st27{opacity:0.15;clip-path:url(#SVGID_18_);}
	.st28{fill:#FFFFFF;}
	.st29{fill:#0600FF;stroke:#FFFFFF;stroke-miterlimit:10;}
	.st30{fill:none;stroke:#FFFFFF;stroke-miterlimit:10;}
</style>
<g id="zz_x5F_Old" class="st0">
</g>
<g id="Guides">
</g>
<g id="Artwork">
</g>
<g id="RiverNames">
</g>
<g id="RiverNames02">
</g>
<g id="Time">
</g>
<g id="Date" class="st0">
</g>
<g id="Day" class="st0">
</g>
<g id="Dropdown" class="st0">
</g>
<g id="LoadPage">
	<g>
		<path class="st5" d="M499.39,723.78c-102.18,82.24-70.03,148.37,1.27,95.97c58.45-42.96,83.38,17.47,45.49,44.69
			c-34.07,24.48-117.24,34.88-147.55-55.27c-33.63-100.01-124.42-27.77-41.12,24.73c43.87,27.65,28.3,59.04-20.18,43.28
			c-89.84-29.2-93.93,52.62-30.64,56.72c48.21,3.13,97.55-16.72,138.65-19.53c38.99-2.67,78.28-1.15,101.07,20.27
			c33.27,31.27,7.11,67.94-27.44,58.72c-27.85-7.43-52.67-46.84-83.68-49.12c-30.72-2.25-59.89,22.39-42.28,123.97"/>
		<g>
			<g>
				<g>
					<line class="st5" x1="416.57" y1="771.57" x2="416.57" y2="791.24"/>
					<line class="st5" x1="416.57" y1="1007.95" x2="416.57" y2="1027.62"/>
				</g>
				<g>
					<line class="st5" x1="544.6" y1="899.59" x2="524.93" y2="899.59"/>
					<line class="st5" x1="308.21" y1="899.59" x2="288.54" y2="899.59"/>
				</g>
			</g>
			<g>
				<g>
					<line class="st5" x1="352.56" y1="788.72" x2="362.39" y2="805.76"/>
					<line class="st5" x1="470.75" y1="993.43" x2="480.58" y2="1010.47"/>
				</g>
				<g>
					<line class="st5" x1="527.45" y1="835.58" x2="510.41" y2="845.42"/>
					<line class="st5" x1="322.73" y1="953.77" x2="305.69" y2="963.61"/>
				</g>
			</g>
			<g>
				<g>
					<line class="st5" x1="305.69" y1="835.58" x2="322.73" y2="845.42"/>
					<line class="st5" x1="510.41" y1="953.77" x2="527.45" y2="963.61"/>
				</g>
				<g>
					<line class="st5" x1="480.58" y1="788.72" x2="470.75" y2="805.76"/>
					<line class="st5" x1="362.39" y1="993.43" x2="352.56" y2="1010.47"/>
				</g>
			</g>
		</g>
	</g>
</g>
<g id="Slam_x5F_Ad" class="st0">
</g>
<g id="RiverOutlines">
</g>
</svg>
