<svg xmlns="http://www.w3.org/2000/svg" viewBox="0 0 628.06 425.25"><defs><style>.cls-1,.cls-2{fill:none;stroke:#000;stroke-miterlimit:10;}.cls-1{stroke-width:2px;}.cls-3,.cls-5{font-size:16.6px;font-family:NHaasGroteskDSPro-45Lt, Neue Haas Grotesk Display Pro;}.cls-3,.cls-6{letter-spacing:0.1em;}.cls-4{letter-spacing:0.09em;}.cls-5{letter-spacing:0.02em;}.cls-7{letter-spacing:0.11em;}.cls-8{letter-spacing:0.09em;}</style></defs><g id="Layer_2" data-name="Layer 2"><g id="Artwork"><polygon class="cls-1" points="179.57 27.47 192.78 4.58 166.35 4.58 179.57 27.47"/><line class="cls-1" x1="179.57" y1="83.29" x2="179.57" y2="48.95"/><line class="cls-1" x1="359.13" y1="246.61" x2="359.12" y2="246.61"/><line class="cls-1" x1="342.47" y1="246.61" x2="359.12" y2="246.61"/><line class="cls-1" x1="16.67" y1="246.61" x2="0.01" y2="246.61"/><line class="cls-1" y1="246.61" x2="0.01" y2="246.61"/><line class="cls-1" x1="89.37" y1="90.39" x2="97.92" y2="105.2"/><line class="cls-1" x1="89.37" y1="90.38" x2="89.37" y2="90.39"/><line class="cls-1" x1="260.85" y1="387.4" x2="268.96" y2="401.45"/><line class="cls-1" x1="268.96" y1="401.45" x2="268.96" y2="401.45"/><line class="cls-1" x1="335.5" y1="156.58" x2="335.5" y2="156.58"/><line class="cls-1" x1="335.5" y1="156.58" x2="320.85" y2="165.04"/><line class="cls-1" x1="38.65" y1="327.97" x2="24.44" y2="336.17"/><line class="cls-1" x1="24.43" y1="336.17" x2="24.44" y2="336.17"/><line class="cls-1" x1="23.64" y1="156.58" x2="38.28" y2="165.04"/><line class="cls-1" x1="23.64" y1="156.58" x2="23.63" y2="156.58"/><line class="cls-1" x1="320.48" y1="327.97" x2="334.69" y2="336.17"/><line class="cls-1" x1="334.69" y1="336.17" x2="334.7" y2="336.18"/><line class="cls-1" x1="269.76" y1="90.38" x2="269.76" y2="90.39"/><line class="cls-1" x1="269.76" y1="90.39" x2="261.21" y2="105.2"/><line class="cls-1" x1="90.17" y1="401.45" x2="98.28" y2="387.4"/><line class="cls-1" x1="179.57" y1="409.1" x2="179.57" y2="425.25"/><line class="cls-1" x1="324.5" y1="231.1" x2="307.49" y2="232.89"/><line class="cls-1" x1="69.05" y1="257.95" x2="86.02" y2="256.17"/><line class="cls-1" x1="290.01" y1="234.73" x2="273.03" y2="236.51"/><line class="cls-1" x1="51.64" y1="259.78" x2="34.63" y2="261.57"/><line class="cls-1" x1="318.16" y1="201.3" x2="301.92" y2="206.58"/><line class="cls-1" x1="73.79" y1="280.7" x2="90.03" y2="275.43"/><line class="cls-1" x1="57.21" y1="286.09" x2="40.97" y2="291.37"/><line class="cls-1" x1="285.13" y1="212.04" x2="268.89" y2="217.31"/><line class="cls-1" x1="275.62" y1="190.88" x2="260.83" y2="199.42"/><line class="cls-1" x1="83.19" y1="301.98" x2="97.98" y2="293.44"/><line class="cls-1" x1="68.16" y1="310.65" x2="53.36" y2="319.2"/><line class="cls-1" x1="305.77" y1="173.47" x2="290.97" y2="182.02"/><line class="cls-1" x1="287.87" y1="148.82" x2="275.15" y2="160.27"/><line class="cls-1" x1="261.93" y1="172.17" x2="249.25" y2="183.59"/><line class="cls-1" x1="83.99" y1="332.4" x2="71.27" y2="343.85"/><line class="cls-1" x1="96.84" y1="320.83" x2="109.52" y2="309.4"/><line class="cls-1" x1="265.22" y1="128.44" x2="255.17" y2="142.28"/><line class="cls-1" x1="244.69" y1="156.71" x2="234.65" y2="170.52"/><line class="cls-1" x1="93.91" y1="364.24" x2="103.96" y2="350.4"/><line class="cls-1" x1="114.1" y1="336.44" x2="124.13" y2="322.63"/><line class="cls-1" x1="134.24" y1="348.14" x2="141.18" y2="332.55"/><line class="cls-1" x1="224.62" y1="145.14" x2="217.68" y2="160.74"/><line class="cls-1" x1="238.84" y1="113.2" x2="231.89" y2="128.81"/><line class="cls-1" x1="120.29" y1="379.47" x2="127.24" y2="363.86"/><line class="cls-1" x1="156.39" y1="355.36" x2="159.94" y2="338.66"/><line class="cls-1" x1="149.27" y1="388.88" x2="152.82" y2="372.17"/><line class="cls-1" x1="202.59" y1="138.01" x2="199.04" y2="154.71"/><line class="cls-1" x1="209.87" y1="103.79" x2="206.31" y2="120.51"/><line class="cls-1" x1="179.57" y1="117.72" x2="179.57" y2="100.6"/><line class="cls-1" x1="179.57" y1="135.62" x2="179.57" y2="152.69"/><line class="cls-1" x1="179.57" y1="357.78" x2="179.57" y2="340.72"/><line class="cls-1" x1="179.57" y1="374.95" x2="179.57" y2="392.07"/><line class="cls-1" x1="209.87" y1="388.88" x2="206.31" y2="372.17"/><line class="cls-1" x1="149.27" y1="103.79" x2="152.82" y2="120.51"/><line class="cls-1" x1="202.74" y1="355.36" x2="199.19" y2="338.66"/><line class="cls-1" x1="156.54" y1="138.01" x2="160.09" y2="154.71"/><line class="cls-1" x1="134.51" y1="145.14" x2="141.46" y2="160.74"/><line class="cls-1" x1="224.89" y1="348.14" x2="217.95" y2="332.55"/><line class="cls-1" x1="120.29" y1="113.2" x2="127.24" y2="128.81"/><line class="cls-1" x1="238.84" y1="379.47" x2="231.89" y2="363.86"/><line class="cls-1" x1="245.03" y1="336.44" x2="235" y2="322.63"/><line class="cls-1" x1="103.96" y1="142.28" x2="93.91" y2="128.44"/><line class="cls-1" x1="114.45" y1="156.71" x2="124.48" y2="170.52"/><line class="cls-1" x1="265.22" y1="364.24" x2="255.17" y2="350.4"/><line class="cls-1" x1="97.2" y1="172.17" x2="109.88" y2="183.59"/><line class="cls-1" x1="275.15" y1="332.4" x2="287.87" y2="343.85"/><line class="cls-1" x1="262.29" y1="320.83" x2="249.61" y2="309.4"/><line class="cls-1" x1="71.27" y1="148.82" x2="83.99" y2="160.27"/><line class="cls-1" x1="83.51" y1="190.88" x2="98.3" y2="199.42"/><line class="cls-1" x1="53.36" y1="173.47" x2="68.16" y2="182.02"/><line class="cls-1" x1="290.97" y1="310.65" x2="305.77" y2="319.2"/><line class="cls-1" x1="275.94" y1="301.98" x2="261.16" y2="293.44"/><line class="cls-1" x1="285.34" y1="280.7" x2="269.1" y2="275.43"/><line class="cls-1" x1="40.97" y1="201.3" x2="57.21" y2="206.58"/><line class="cls-1" x1="301.92" y1="286.09" x2="318.16" y2="291.37"/><line class="cls-1" x1="74.01" y1="212.04" x2="90.24" y2="217.31"/><line class="cls-1" x1="290.09" y1="257.95" x2="273.11" y2="256.17"/><line class="cls-1" x1="69.13" y1="234.73" x2="86.1" y2="236.51"/><line class="cls-1" x1="307.49" y1="259.78" x2="324.5" y2="261.57"/><line class="cls-1" x1="34.63" y1="231.1" x2="51.64" y2="232.89"/><line class="cls-2" x1="212.21" y1="63.47" x2="509.23" y2="63.47"/><line class="cls-2" x1="287.19" y1="127.69" x2="509.23" y2="127.69"/><line class="cls-2" x1="334.69" y1="194.44" x2="509.23" y2="194.44"/><text class="cls-3" transform="translate(523.05 70.46)">Hou<tspan class="cls-4" x="33.06" y="0">r</tspan><tspan x="39.75" y="0">s</tspan></text><line class="cls-2" x1="212.21" y1="7.25" x2="509.23" y2="7.25"/><text class="cls-5" transform="translate(523.05 14.24)">T<tspan class="cls-6" x="10.09" y="0">rue No</tspan><tspan class="cls-7" x="64.17" y="0">r</tspan><tspan class="cls-6" x="71.03" y="0">th</tspan></text><text class="cls-3" transform="translate(523.05 132.13)">Minu<tspan class="cls-8" x="39.33" y="0">t</tspan><tspan x="45.51" y="0">es</tspan></text><text class="cls-3" transform="translate(523.05 198.88)">Seconds</text></g></g></svg>