<svg xmlns="http://www.w3.org/2000/svg" xmlns:xlink="http://www.w3.org/1999/xlink" viewBox="0 0 4138.86 2832.25"><defs><style>.cls-1{fill:none;}.cls-2{clip-path:url(#clip-path);}.cls-3{opacity:0.05;}</style><clipPath id="clip-path" transform="translate(1181.64)"><rect class="cls-1" width="796.43" height="1297.22"/></clipPath></defs><g id="Layer_2" data-name="Layer 2"><g id="Artwork"><g class="cls-2"><g class="cls-3"><path d="M2759.5,1108.93c-20.19-.79-40.7.87-60.73,3.81-13.2,1.94-13.7,3.49-21.26-7.21-1.61-2.28-3.39-4.76-5.69-6.17-11.26-6.91-23-13-34-20.4-4.24-2.87-9.58-8.45-9.41-12.6.38-9.88-4.17-14.55-11.84-18.7a24.23,24.23,0,0,1-8.81-8.55c-10.18-17-26.46-25.41-45.64-20.86-20.43,4.84-39.89,2.17-58.23-6.35a605.71,605.71,0,0,1-56.34-30.19c-24.25-14.55-47.5-30.74-71.71-45.35-9.64-5.82-21.28-8.31-31-14.08-12.57-7.51-25.88-8.4-39.77-8.56-9.72-.11-15.94,4.94-21.33,12.08-.77,1-2.48,1.33-3.71,2-15.11,8.68-30,17.75-45.4,25.87-6.12,3.22-13.42,6.19-20.09,6-13.65-.38-27.27-4.54-40.84-4.24-17.36.37-35.26-.11-51.45,8.91-3.87,2.16-9.06,2.8-13.62,2.72-9-.14-17.95-1.81-26.93-1.86-8.82,0-17.34.68-21-10-.46-1.32-2.82-2-4.3-2.93-.57,2-2.16,4.36-1.54,5.82,3.18,7.5,2.51,12.69-6.63,14.47-1,.2-2.22,2-2.46,3.26-2.74,14.22-15.2,16.88-25.78,21.57-1.91.85-4.83.2-7-.53-5.74-1.89-11.17-5.1-17-6.15-11.58-2.09-23.79-1.65-34.94-5-9.07-2.7-15.29-.34-22.45,3.94-5.12,3.06-11,4.82-16.73,6.84-.8.29-2.24-1.23-3.39-1.92a13.34,13.34,0,0,1,2.16-2.86c2-1.52,4.14-2.78,6.22-4.15-3-.59-6.23-2-9.12-1.58-5.61.86-11,3.12-16.58,4.19-12.11,2.31-24.24,5.51-36.45,6-15.46.64-27.77-9.82-33.27-24.29-.77-2-5.81-4.17-8.06-3.51-7.16,2.11-8.42-1.14-8.41-7,0-9.1,8.62-14.77,18.24-11.89,8.86,2.65,21.7-5.66,20.8-14.57-.44-4.46-4.27-9.48-8-12.34-2-1.5-7.21.74-10.74,2-8,2.78-15.6,7.38-23.77,8.72-17.77,2.92-35.88,3.67-53.69,6.4-20.23,3.1-37.24,14.58-52.77,26.45-9.49,7.26-17.75,10.87-29.2,10.54-21.44-.63-42.11,1.92-62.83,9.54-16.42,6.05-35,15.31-52.55.31a5.3,5.3,0,0,0-4.14-.64c-12.71,3.4-26,5.61-37.89,10.84-12.89,5.65-24.65,14-36.62,21.55-4.62,2.93-9.61,6.34-12.44,10.79-9.39,14.78-23.53,23.3-38.68,30.09-6.74,3-11.5,6.4-13.14,13.47-1.74,7.52-6.85,10.54-13.9,12.49-23.36,6.45-39.37,20.56-47.56,44.13-5.37,15.44-12.71,30.31-20.36,44.8-5.41,10.25-14.59,18.7-19,29.24-7.91,19.06-26.84,36.58-47.88,35.8-22.07-.82-37.52,7.57-46,26.51-5.43,12.16-6.55,26.23-9.66,39.44-1.9,8.09-3.08,16.48-6,24.18-8,21-23,39.1-24.27,63-.73,13.4-1.85,26.09,3.88,39.09,3,6.83,2.88,15.73,2,23.44-2.67,22.57-9.85,45.15-8.92,67.47,1.09,26-11.12,40.59-31.34,50.21-14.76,7-27.27,16.65-36.22,29s-17.47,10.86-28.89,6.31c-21.14-8.41-42-19-64-23.43-32.93-6.65-66.79-8.6-100.21-12.87-17.69-2.26-35.27-5.45-53-7.67a57,57,0,0,0-16.87.85c-10.6,1.91-21,5.54-31.62,6.64-17.46,1.8-35.06,2.58-52.62,2.83-5.15.07-40.83,1.27-51.72,4.3-20.47,5.71-40.85,12.67-61.76,15.6a604.54,604.54,0,0,1-82.34,5.66c-23.29,0-46.26-4-64.13-22.06-7.91-8-17.27-14.51-25.49-22.19-4.53-4.24-9.33-8.94-11.83-14.43-7.41-16.29-34.69-51.09-41.29-67.74-2.73-8.55-6.57-17.15-7.14-25.91-1.76-26.94,23.75-52.21,23.24-79.22-.26-14,1.09-27.74,13.64-37.36,1.68-1.29,2.63-4,3.17-6.21,4.06-16.68,14.23-24.9,31.62-27.16,23.83-3.09,28.42-9,26.57-30.38-.44-5.2-4-10.28-6.77-15.1-6-10.69-.08-25.75,11.09-26.25,23.89-1.08,38.71-13.61,48.92-34.54,5.19-10.63,3.43-18-2.41-27.5-7.06-11.49-14.86-24.34-16.09-37.19-2-21.42,1.17-43.32,1.49-65,.07-5.1-1-11.81-4.32-15A181.46,181.46,0,0,0,521,1023.3c-16.34-10.59-12.16-31.43-15.71-31-6.94.87-8.81-5.87-10.76-12.39-1.73-5.8-7.11-10.55-11-15.66-1.91-2.5-5.18-4.44-6-7.19-5.06-16.93-27.18-34.71-19.83-50,.57-1.18,5.39-1.55,7.31-.54,2.29,1.21,3.2,4.84,5.42,6.38,1.24.85,5.75-.58,5.73-.73-1.16-14.09,7.49-22.47,17-30.67,15-12.89,29.62-26.22,44.56-39.17a9.07,9.07,0,0,1,6.55-2.11c17.34,3.07,27.55-7.56,36.56-19.39,10.39-13.65,24.41-20.44,40.38-24.65,4-1,7.65-3.27,11.24-5.36,10.92-6.35,21-16.24,32.73-18.57,16.85-3.37,25-13.87,32.18-26.7,5.26-9.42,9.13-19.61,14-29.29,1.84-3.7,4-9.13,7.07-10,11.37-3.2,7.11-11.89,4-15.57-9.16-10.88-22.79-25-25.64-36.61-.38-1.52,2.67-5.44,2.89-5.34,6.85,2.93,5.75-2.7,6.08-5.84.83-8.06,11.22-15.53,12.41-23.52.67-4.51,1.93-10.1,5-12.88C733.61,597.1,745.11,589,755.9,580c10.22-8.52,9.92-17.86,19.37-27.21,2.56-2.54,29.09-6,29.58-10.17,1.18-9.92,1.18-20,3-29.82,1.07-5.82,2.93-10.41-5.26-11.2.37-2.34.4-6.6,1.18-6.74,16.68-3,22.21-18.61,31.44-29.17,7.45-8.52,17.63-36.8,10.67-29.74-.15.16-4.39-3.06-4.23-3.36,5.12-9.53-3.09-24.24,11.56-30.19.94-.38,1.7-4.23.92-5.3-10.57-14.53-6.5-26.39,6-37.19,6-5.18,11.34-11.13,17.44-16.19,11.92-9.89,24-19.57,36.39-28.91a12.72,12.72,0,0,1,9.17-2.06c5.46,1.1,10.85,2.67,12.64-4.25.29-1.11-6.19-3.53-8.94-6-2.2-2-5.54-6.19-4.87-7.34a128,128,0,0,1,13.38-18.25c.83-1,5.82-.39,6.26.62,5.63,12.89,22.57,9.1,22.57,2.4,0-2.52,2.48-18.78,4.21-23.4,4.33-11.51,10.52-41.74,4.94-39.48-1.58.64-.95-14.37-2.94-17.47-6.81-10.58-6.66-19.23-.24-30.15,5.86-10,8.11-22,13-32.74C986,130.27,1089.54,6.07,1093.17,0H876.63C871.56,18.74,840.56,125.68,848,147.23a16,16,0,0,1-1.26,12.1c-8,12.87-9.14,26.81-8.24,41.29.38,6.11-2,12.34,8.14,14.86,5.78,1.44,7.88,10.45,3,17.07-6.14,8.28-12.6,16.33-19.24,24.22-.49.58-4.13-.44-5.24-1.68-1.61-1.81-2.25-4.48-3.3-6.78-1.39,2.28-3.32,4.4-4.08,6.87-2,6.35-2.78,13.11-5.23,19.22-2,5.08-4.78,10.75-8.91,14C787.25,301,774.41,316,766.11,335.06c-2,4.66-5.62,8.64-8.42,13-8.34,12.87-15.28,25.89-13.29,42.34,1.28,10.64.54,21.58.13,32.37-.3,8-3.77,16.66-1.78,23.92,2.58,9.46-2.42,13.66-6.9,19.74-8.34,11.34-23.67,20.71-12.81,38.75,1.17,2,.7,6.1-.63,8.18-8.07,12.59-15,26.55-30.85,31.43-4.52,1.39-7.17,1.47-2.19,6.85,11.79,12.74,10,18.12-6.39,23.76-5,1.7-10.14,2.92-14.83,5.15-3.28,1.56-8.4,4.45-8.41,6.76,0,9.56-8.25,11.75-13,17.2-6.44,7.47-11.74,16-17.26,24.18-.7,1.05.4,3.21.42,4.85.07,7.51.66,15.08-.1,22.51-.89,8.77-5.08,17.67-4,26,1.4,11.24.22,19.16-10.12,25.42-7.36,4.47-12.61,11.3-5,20,4.58,5.23,1.4,8.49-1.86,12.19-8.17,9.25-16.39,18.45-24.33,27.89-2.51,3-8.45,6.88.56,9.76.59.19.85,5,.07,5.39-10.37,5.54-20.82,11-31.52,15.83-6.39,2.91-10.85.79-8.7-6.85a92.15,92.15,0,0,1,8.57-20.82c2.72-4.72,3.2-6.67-2-9.89-15.7-9.73-18.26-32.16-38.34-36.19-5.6-1.12-10.07-8.11-14.92-12.57-2.06-1.89-3.37-4.88-5.69-6.18-17.58-9.88-27.44-25-32.82-44.16-1.16-4.11,14.45-6.27,10.18-7.27-18.55-4.35-41.69-7.12-49.59-25.48-2.35-5.46-4.14-11.16-6.62-16.55a46.29,46.29,0,0,0-6-9.8c-10.58-13-24.41-23.92-26.75-42.3-.77-6.09-2.85-12-4.33-18-6.27-25.55-16.05-48.55-37.52-66.07-16.68-13.61-11.35-66.17,3.89-81.35s20.18-32.78,18.37-52.86c-.41-4.58-5.32-11.87-8.83-12.3-5-.6-11.57,3-15.66,6.71-3.54,3.25-3.67,10-6.95,13.8s-9.85,9.11-12.83,8c-5.83-2.17-13.84-7.94-14.4-12.94-1.5-13.5-.55-27.52,1.31-41.08,1.49-10.87,1.2-18.77-9.49-25.45-13.12-8.19-3.33-.25,8.85-9.38,8.6-6.44,9.88-12.79,6.9-22-1.13-3.51-1-7.58-.72-11.35.74-11.28-3.22-18-15.56-18.39-5.91-.19-5.47-2.94-2.86-7.72,1.55-2.86.61-7.93-.81-11.34-1.68-4.06-4.77-5.5-8.42-.61-.68.91-6.26-.53-8.47-2.29-8.54-6.79-11.78-15.7-8.37-26.42,3.85-12.12.06-22.53-7.28-32a107.6,107.6,0,0,0-10.67-11.12c-1.65-1.59-4.52,0-4.64,2-.19,3.22-.95,6.41-1.46,9.61-2-1.55-4.19-2.88-5.86-4.7-5.6-6.13-12-11.8-16.28-18.78-13.18-21.67-12.38-24.79,7-39.37C228.43,73.17,285.91,0,285.91,0H89.74C90.85,8.73,77.49,120,79,128.65c.44,2.6-1,5.52-1.64,8.3-6.63-1.76-8.41.38-5.93,6.83,2,5.08,3.91,6.48,9.1,3,1.59-1.06,7.38,1.26,8.91,3.58A221.59,221.59,0,0,1,103.11,175c3.38,6.88,10.86,8.82,16.9,3.75,5.3-4.45,15.29-3.83,17.58,1.08,3.6,7.72-5.68,25.39-14.49,25.06-7.65-.29-7.73,4.24-5.82,7.32,2.94,4.75,7.84,8.51,12.46,11.94,5.55,4.12,12,7,17.48,11.22,14.65,11.19,23.81,24.35,13.41,43.44-.4.74-.1,1.88,0,2.83,1,20.37,7.25,37.89,26.24,48.61,4.55,2.56,9.37,5,6.72,12-8.73,23.3-5.73,44.37,9,65.22,6.67,9.43,12.94,8.9,19.92,5.24,7.39-3.87,17-6.2,18.82-17.32.33-2,6.71-3,10.3-4.51,1.13,3.34,3.92,7.24,3,9.9a32.94,32.94,0,0,1-8.4,12.77C230.15,428.85,223.07,447,228,468.88c1,4.46,4.11,10,7.87,12,22.85,12.49,37.1,29,30.67,57-.29,1.24.41,2.71.65,4.08,1.28-.91,2.6-1.77,3.82-2.74,1.48-1.19,2.88-2.48,4.32-3.73.6,1.76,1.56,3.48,1.75,5.28.7,6.75-.72,14.46,2.12,20.07,5.07,10,10.65,23,19.58,27.23,21.79,10.34,23.57,31.67,32.95,48.9,1.14,2.08,1.66,4.84,3.33,6.22,3.55,2.92,7.62,7.17,11.57,7.28,14.68.44,23.63,7.53,32,19.26,13.34,18.77,31.29,33.33,49.28,47.76C440.82,727.9,448,745,466,749.65c.86.23,1.65,3.13,1.46,4.66-2.27,18.2-4.39,36.43-7.35,54.52-1,5.92-2.79,13-6.83,16.82-8.55,8-18.58,14.52-28.43,21-10.57,7-22.12,12.49-32.3,20-6.74,4.93-11.74,12.22-17.65,18.33-7.11,7.34-12.59,15-12,26.2.38,7-.22,14.65-2.82,21-7.28,17.87-2,35,2.53,51.74,3.4,12.56,10,23.33,24.3,29.39,13.13,5.55,6.74,13.42,13,27.8,3.72,8.55,8.34,16.8,11.16,25.63,1.62,5.06,1,11.11.05,16.45-.2,1.07-6.85.57-10.33,1.53-2.54.69-4.75,2.58-7.11,3.93,1.47,1.46,6.23,5.16,7.05,6.92,1.37,2.94,1,5-.16,6.67-4,5.52,12.52,30.73,11.55,33.14-4,10,17.77,6.15,19.8-11.95.92-8.22,2-15.46,5.39-23.53,2.35-5.66,4.7-11.6,5.36-17.6.55-5-1.49-10.24-2.13-15.41-.75-6,.36-12.62-8.7-14-1.73-.26-3.64-6-3.46-9.16.09-1.6,4.5-3.94,7.15-4.24,13.38-1.51,23.66,8.9,22.23,22.45-1,9.36-.78,17.3,11.36,18.9,2.08.27,4.88,3.46,5.43,5.76,3.22,13.55,9.8,26.46,2.83,41.46-2.89,6.23-2.91,18.24,1.13,22.31,8.62,8.7,17.71,16.89,23.76,27.53,1.73,3.05,1.29,9.92-1,12.17a112,112,0,0,1-21.45,16c-3,1.81-9.46,2.7-11.32.9-8.53-8.26-18.47-6.11-28.37-5.86-7.31.19-15.5,3-19.93-6.55-.65-1.39-4.21-2.21-6.19-1.88-1,.17-1.6,3.39-2.32,5.26-1.38,3.63-2.67,7.31-4.08,10.94-1.79,4.63-6,9.73-5.11,13.76,4.68,21.85-9.83,34.49-23.45,45.18-11.8,9.26-14.07,22-19.94,33.49-.21.42,2.16,3.09,3.43,3.18,9.49.68,14.14,7.06,12,15.92-1.63,6.73-3.46,13.75-3.1,20.53.61,11.29-1.79,21-6.62,31.43-8.58,18.47-8,37.28,3.21,55.6,4.09,6.72,4.6,15.62,6.8,23.51,1.85,6.64,3.87,13.24,5.64,19.9.86,3.25,2.77,7.17,1.72,9.81-4,10.11-9,19.87-13.7,29.69l-77.63,30.41C275.22,1559,262,1580.84,233.45,1581c-6.18,0-15.53,2-17.94,6.14-8.25,14.35-20.55,21.09-35.17,27-13.23,5.36-24.93,14.28-38.31.86-1.4-1.41-9.38-4.69-6.56,2.67,4.75,12.46-3.32,15-11.2,16-18.76,2.33-30.18,15.3-41,28a63.71,63.71,0,0,1-27.61,19c-19.87,7.35-40.43,5.73-60.82,4.94-11-.43-25.3,1.4-23.72,15,.51,4.3-.55,11.31-3.37,13-10.24,6.24-16.63,18.82-30.84,18.84-3.5,0-7.15,2.36-10.47,4.13-10.35,5.51-21.37,10.21-30.6,17.23-8.77,6.69-16.08,15.51-23.16,24.12-6.59,8-12.19,16.88-17.93,25.58-8.83,13.37-18.62,26.3-25.69,40.57-6,12.14-8.23,26.1-13.09,38.9-10.09,26.61-21.77,52.46-39.27,75.28-1.84,2.4-1.83,6.21-2.68,9.37-2.06,7.69-3.1,15.86-6.39,23-9.25,20-19.37,39.59-29.26,59.28-14,27.83-36,41.93-67.78,42.61-26.54.57-53.11,3-79.53,6-17.89,2-35.63,9.39-45.19,24.07A231.47,231.47,0,0,1-482,2157.56c-9.59,9.94-19.12,12.18-31.73,10.75-25.94-2.93-51.93-5.8-78-7.23-13.65-.75-27.5,2.68-41.19,2.24-12.91-.41-22.56,4.11-32.25,12-7.85,6.39-17.49,10.64-26.5,15.53-7.48,4.06-16.22,6.45-22.59,11.76-10.84,9-20.3,19.74-30.26,29.82-16.79,17-55.14,43.73-57.21,44.75-3.41,1.68-7,3-10.53,4.4-22.68,9.14-31.15,29.55-36.21,50.46-1.75,7.23-3.05,13-8.19,18-4.06,4-8,8.1-12,12.13-13.87,14-27.43,33.64-46.3,42.58L-938.25,2434a49.68,49.68,0,0,1-12.88,14.9c-23,18-41,40.43-57.59,64.12-3.14,4.48-83.53,75.78-172.92,84.76v233.79l729.74.69c5-23.86,62.49-59.56,61-80.72-.34-4.89,2-13.13,5.4-14.57,14.13-6,28.83-11.6,43.86-14.41,15.27-2.85,31.17-2.34,46.81-3.11,5.13-.26,30.42-1.81,40.32-2.76,23.61-2.27,47.4-3,70.85-6.32,27.36-3.85,55.87-12.68,68.44-37.66,12.24-24.31,34-36.37,51.59-52.95,25.25-23.73,55.3-42.34,83.27-63.18a84.09,84.09,0,0,0,9.89-8.1C45.69,2532,61.38,2515.14,77.84,2499c18.76-18.37,43.9-28.85,60.92-49.8,9.73-12,22.07-21.86,33.24-32.68,13.55-13.12,26.64-26.74,40.77-39.19,11.25-9.91,23.81-18.33,35.69-27.53,2.62-2,5.41-4.22,7.13-7,7.75-12.29,14.9-25,22.81-37.16,2.71-4.16,6.43-8.45,10.72-10.65a200.27,200.27,0,0,1,28.67-11.86c27.41-9,51.89-23.32,74.82-40.36,14.79-11,29.43-21.35,47.2-27.74,13.61-4.9,25.75-13.93,38.37-21.43,2.28-1.36,4.67-3.95,5.31-6.42,2.31-8.88,9.45-11.29,16.75-13.75,11.27-3.79,23.32-6.12,33.65-11.64,25.8-13.8,51.5-28.83,71.39-50.29,12.77-13.78,27.54-9.22,41.58-11.62,11.21-1.91,15.23,9.12,21.67,15.51,16.79,16.68,29.33,35.42,35.7,58.9,5.92,21.82,14.87,42.87,23.26,64,2.92,7.35,8.24,13.73,12.27,20.66,11.36,19.54,21.25,40.12,34.28,58.48,17,24,40.36,41,68.21,51.21a287.76,287.76,0,0,0,31.12,9.93c11.47,2.79,23.33,3.94,34.88,6.44,11,2.37,21.71,6.05,32.72,8.3,25.92,5.31,52,9.83,77.87,15.3,6.92,1.46,8.88-1.21,9-6.9.24-11.46,6.35-17.25,17.28-18.86,12.15-1.78,24.57-2.63,36.39-5.74,24.55-6.46,48.53-15.16,73.21-21,19.91-4.74,37.34-13.12,50.72-28.17,11.52-13,21.33-27.43,31.74-41.36,9-12,21-17.06,35.85-16.39,23.26,1,46.52,2.32,69.8,2.69,9.57.16,17.32,2.48,24.75,8.76,12.19,10.3,26.5,17.1,42.72,16.93,11.9-.13,21.26,3.14,28.94,12.32,2.2,2.63,6.32,3.58,9.39,5.58,8.12,5.26,20.63,9.11,23.16,16.39,4,11.44,10,21.07,15.45,31.43,3.45,6.55,7.63,9.58,14.19,9.65,15.61.17,31.28.6,45.84-6.85,7-3.6,15-5.65,21.57-10,21.06-13.89,37.56-.68,55.19,7.94,8.83,4.32,18,8.6,27.54,10.7,21.4,4.74,42.69,8.82,58.86,25.63,4.2,4.36,9.54,9.14,15.1,10.35,11.61,2.55,19.54,9.07,25.78,18.31,3.69,5.46,5.67,3.08,8-.87,7.41-12.53,13.38-13.16,25.27-4.94,14.26,9.85,28.12,21.14,46.59,22.25,10,.6,20,.83,30,.88,27.66.14,55.35.82,83-.23,11.09-.42,20.89-2.64,28.66,8.44,2.48,3.54,9.26,5.36,14.2,5.62a219.76,219.76,0,0,0,32.75-.85c18-1.79,34.35-2.28,46.45,15.59,5.24,7.75,15,11.38,26.41,9.62,17.67-2.73,34.07.15,44,18.25a31.31,31.31,0,0,0,12,11.57,183.64,183.64,0,0,0,27,11.58c7.51,2.64,10.52,7.53,10.66,15,.21,10.64,7.26,16.73,14.43,23.41,15.66,14.61,37.65,21.24,49.45,40.92,4.74,7.89,12.13,6.45,13.69-2.51,2-11.65,1.31-23.79,1.64-35.72,0-.76-.9-1.66-1.56-2.32-9.92-10-18.68-21.74-30.13-29.52-12.89-8.75-17.91-21.11-24.39-33.84-7.89-15.49-18-29.86-27.69-44.39-4.37-6.57-10.29-12.09-14.88-18.53-12.78-18-24-37.55-49.05-40.87a34.93,34.93,0,0,1-12.18-3.86,65,65,0,0,1-13.34-9.9c-5.76-5.58-10.36-12.43-16.39-17.66-11-9.55-24-17.14-33.71-27.75-9-9.8-17.86-11.22-29.18-7.33s-22.1,9.26-33.6,11.2c-19.61,3.31-39.67,3.83-59.37,6.64-25.15,3.59-50.81,5.46-73.52,19-5.65,3.38-15.09,6.1-16-3.45-1.18-13.2-10.4-20.81-16-30.86-7.26-13-18.81-16.42-33.43-12.68a71,71,0,0,1-25.38,1.3c-10.72-1.28-21.62-17.17-16.57-25.58,6.24-10.38.91-14.52-5.67-19.38-8.32-6.16-17-11.84-25.41-17.88-11-7.89-22.46-15.28-32.72-24.06-11.46-9.81-30.53-11.3-43.14-2.5-2.91,2-7.94,3.54-11,2.45-16.25-5.79-32-5.63-48.31.07-5.83,2-13.93,2.49-19.31,0-14.12-6.51-27.76-13.9-37.77-27.12-4.81-6.35-13.26-11.64-21-13.71A381.52,381.52,0,0,1,1425,2169c-17.06-8.32-34.81-14.53-48.34-28.43-6.94-7.12-12.41-16.37-20.53-21.5-21.88-13.82-32.23-35.21-42.25-57.39-3.07-6.8-6.84-14.3-12.45-18.74-13.66-10.8-19.1-25.47-24.14-41-1.29-4-5.68-8-9.66-9.87-9-4.12-19-6-27.89-10.37-11.44-5.59-21.76-13.52-33.32-18.81-11.27-5.16-19.33-12.78-26.8-22.46a118.71,118.71,0,0,0-24.52-23.37c-23.71-17-50.06-29.57-72.54-49.29-19.13-16.77-44.43-26.48-66.88-39.5-7.8-4.52-17.82-9.64-15.54-19.85,3.91-17.53,10.1-35,24.65-47,15.39-12.7,28-26.25,31.06-47.32,2-13.67,5.17-14.56,18.65-11.48,4.17,1,8.3,2.08,12.44,3.16,17.43,4.53,34.67,5.9,51.65-2.08a246.76,246.76,0,0,1,24.56-10.39c3.66-1.27,9.13-2,11.91-.19,8.54,5.63,6.77,1,6.57-4.87-.15-4.64,2-9.33,2.93-14,1.12-5.42,2.23-10.86,3.11-16.33,1-6.39-.57-15.59,3.11-18.74,13.56-11.59,18.5-28.39,28.68-41.57,5.33-6.9,9.6-12.54,8.95-20.87-.76-9.82,3.12-17,9.37-24.34,9.67-11.39,19.16-22.79,23.24-38.3,2.78-10.56,10.55-19.8,16-29.7,2-3.72,4.6-7.47,5.37-11.5,6.67-35,33.08-53.77,59.56-72.31,3.15-2.21,8.07-2.4,12.21-2.57,9-.37,18.13.13,27.17-.22,15.12-.58,37.9-17.94,38.1-31.63.3-19.6,6.38-39.23-1.78-59-9.38-22.8,4.87-38.08,23.52-43.78,5-1.53,11.31-1.91,14.54-5.22,10.06-10.33,22.39-10.24,34.58-8.57,13.64,1.87,25.65-1.08,36.37-8.78,16.74-12,32.86-24.89,49.45-37.11a38.82,38.82,0,0,1,12.29-6c14-3.92,25.73,1.15,36.66,9.76,4.31,3.39,10.49,8,14.27.2,5.1-10.54,8-22.12,12.94-32.76,2.41-5.19,6.33-11,11.14-13.51,17.93-9.26,37.64-15.47,54.53-26.2,17.14-10.9,34.62-22.39,43.2-43.34,3.6-8.82,12.62-16,20.53-22.29,7.36-5.8,17-8.62,24.76-14,16.07-11.25,32.07-10.55,49.62-3.66,6.27,2.46,15,2,21.56-.31,17.44-6.1,34.35-13.75,51.35-21.07,19.55-8.42,38.93-13.66,59.23-1.73,3.13,1.84,9.74,2.43,11.93.46,13-11.64,27.87-15.32,44.76-14.26,2.34.15,5.68-3,7.09-5.5.79-1.4-.72-5.64-2.38-6.64-7.63-4.62-4.42-7.67,1.45-8.9a280.36,280.36,0,0,1,32.22-4.81c6.26-.55,9.87,1.81,3.51,7.93-1.14,1.1-1.37,3.15-2,4.76,1.66.21,3.78,1.18,4.93.51,14.23-8.38,28.83-5.7,43.56-2,2.08.52,4.91,1.32,6.42.4,19.76-12.1,45.42-11.18,62.83-28.66,2.81-2.82,7.61-3.86,11.65-5.22,9.8-3.28,19.5-7.33,29.59-9.11,14.27-2.52,31-8.55,42.87-3.72,26.28,10.68,54.87,17.32,77.57,36.29,12.33,10.31,25.75,19.1,33.62,33.93,12.24,23.07,30.93,36.41,57.93,36.15,4.77,0,9.88-1,14.25.27,14.26,4.33,31.34,6,41.67,15.16,18.58,16.42,36.83,29.28,62.44,31,8,.52,21.9,6.51,22.31,11,2,22.32,24.73,27.81,33,44.76,4.41,9,15.7,5.77,24.78,3.51,20.49-5.09,41,4.61,40.83,3.5,9.56-.09,20.45-3.16,28.38.38,13.57,6.06,25.5,14.76,41,6.46,1.33-.71,3.38,0,5.1,0-.83,1.71-1.29,3.76-2.54,5.06-7,7.17-14.47,13.83-21,21.36-3.14,3.63-4.73,8.7-6.4,13.33-.22.62,3.75,4,4.92,3.64a59.51,59.51,0,0,0,14.58-7c1.9-1.3,1.91-5.15,3.12-7.68,1.34-2.84,2.53-7.31,4.71-8,19-5.6,17.6-25.39,25.36-38.12C2800.44,1145.39,2776.34,1109.59,2759.5,1108.93ZM890.67,1810c-14.67,23.74-32.37,45.22-56.36,60.78-6.56,4.26-10.75,13-17.61,15.77-10.57,4.26-22.5,5.14-33.86,7.46l-.45-2.36c-6.19,0-12.42.42-18.55-.19-2.66-.27-5.11-2.68-7.66-4.11,2.39-1.11,4.74-3.07,7.16-3.17,13.34-.51,23.47-6.45,31.08-17.14,1.1-1.55,2.83-2.95,3.2-4.66,4.58-20.68,17.52-38.6,18.87-60.51,1-16.48,6.32-20.47,22.75-24.1,12.8-2.83,25.28-7.08,38.06-10,10.94-2.53,19.1,1.71,19.59,12.56C897.34,1790.23,895.72,1801.86,890.67,1810Z" transform="translate(1181.64)"/><path d="M2048.79,914.47c13.26-2.36,23.09-9.73,31.23-20.25,8.94-11.54,18.48-22.62,27.88-33.8,3.67-4.37,9.68-7.86,11.13-12.78,3.83-13,14.06-12.12,24.22-13.53l7.86,1.48a67.87,67.87,0,0,1-5.84,4.92c-8.95,6.06-7.25,12.36-16.55,17.86-8.34,4.93-11.58,11.18-7.2,20.09,1.81,3.68,7.2,22.81-2.41,33.19-1.94,2.1-3.92,4.18-5.67,6.42-.5.62-.28,1.8-.38,2.73,1.08-.06,37.39.21,38.26-.25,20.39-10.77,24.37-22.69,14.66-43.55-6.83-14.66-6.42-16.67,10.32-19,11.86-1.65,18.93-6.26,22.91-17.71,1.85-5.34,6.35-11.31,11.27-13.76,14-7,19.74-17.71,20.22-32.82.45-14.19,1.59-28.4,3.34-42.49,2.27-18.21-11.11-39.15-29-44-17.51-4.77-28-20.75-26.27-38.72.85-8.81-.17-17.78.52-26.62.53-6.82.12-16.82,4.15-19.62,9-6.26,12.29-15.29,17.55-23.58,11.43-18,24.86-32.58,48.8-33.63,10.92-.48,22.08-4.43,32.35-8.69,20.9-8.66,41.34-18.45,61.84-28.06,8.41-3.95,14.47-10.25,11.56-20.32-1.86-6.41,1.19-8.45,5.82-10.79,6.73-3.41,13.24-7.26,19.87-10.88,1.56-.85,3.84-2.61,4.74-2.11,14.63,8.21,17.94-4.72,24.29-12.44a10.75,10.75,0,0,1,7.07-3.52,99.5,99.5,0,0,0,58.26-22.08c20.24-16.48,39.47-6.05,62.67-13.3,9.89-3.08,26.42-4.31,35.41-.39,16.76,7.3,33.07-12.23,49.91-12.73,26.74-.8,46.56-17.22,67.26-30.6,11.68-7.56,20.66-19.46,30.32-29.91,4.23-4.58,7.79-6.57,13.31-2.62,1.38,1,3.7,1.88,5.13,1.42,22.35-7.29,217.61-68,217.61-68s-185.79,40.26-188.11,41.47c-14.62,7.64-28.94,10.52-46.32,9.06-13-1.1-27.37,8.32-40.32,14.71-8.58,4.24-15.73,11.36-23.49,17.23-3.75,2.84-8.57,5.05-10.9,8.78-5.13,8.22-12.19,11.42-21.35,12.05-4.2.29-9.55.43-12.27,2.92-12.8,11.72-26.41,18.53-44.76,18.08-9.92-.24-17.66.31-24.21-8.33-2.44-3.23-7.9-6.66-11.4-6.14a210.52,210.52,0,0,0-35.59,8.34c-14.31,4.77-28.2,10.84-42.11,16.74-4.17,1.76-9.27,3.9-11.42,7.41-10.94,17.84-30,19.59-47.12,22.5-12.69,2.15-23.63,7-32.07,14.73-5.72,5.25-9.15,5.93-15.67,4.18-21.09-5.66-34.84,4.64-35.18,25.82,0,1.9.66,4.26-.21,5.63-2.79,4.42-5.28,9.91-9.44,12.41A416.87,416.87,0,0,1,2262,540.85c-6.86,3.09-15.74,5-22.89,3.55-20.92-4.31-37,3.19-51.94,16.5a35.08,35.08,0,0,1-11.76,7.22c-14.24,4.75-24.63,13.63-31.33,26.93-7.63,15.18-16,30.08-22.37,45.77-2.83,7-3.83,16.26-1.71,23.33,5,16.66,15.19,30.32,31.25,38.53,6.91,3.54,10.66,7.27,9.28,16.54-3,20,4,38.2,14.22,55.27,2,3.36,4.69,8.19,3.66,11.16a120,120,0,0,1-11.78,24c-1.93,3.09-6.28,5.77-9.95,6.49a165.63,165.63,0,0,0-54.93,21.12c-15.2,9.33-29.49,20.23-43.56,31.22-4.73,3.69-18.1,4.89-7.58,16.9,1.65,1.89-2.18,8.73-3.73,13.19-1.08,3.07-2.74,5.93-3.9,9C2040.82,913.13,2042.75,915.54,2048.79,914.47Z" transform="translate(1181.64)"/></g></g></g></g></svg>