<svg xmlns="http://www.w3.org/2000/svg" viewBox="0 0 523.32 588.56"><defs><style>.cls-1,.cls-2{fill:none;stroke:#000;stroke-miterlimit:10;}.cls-1{stroke-width:2px;}</style></defs><g id="Layer_2" data-name="Layer 2"><g id="Artwork"><circle class="cls-1" cx="261.66" cy="297.78" r="260.66"/><path class="cls-1" d="M261.66,37.12c110.34,0,199.78,116.7,199.78,260.66S372,558.44,261.66,558.44"/><path class="cls-1" d="M261.66,37.12c73.56,0,133.19,116.7,133.19,260.66S335.22,558.44,261.66,558.44"/><path class="cls-1" d="M261.66,37.12c36.78,0,66.59,116.7,66.59,260.66s-29.81,260.66-66.59,260.66"/><path class="cls-1" d="M261.66,558.44c-110.34,0-199.78-116.7-199.78-260.66S151.32,37.12,261.66,37.12"/><path class="cls-1" d="M261.66,558.44c-73.56,0-133.19-116.7-133.19-260.66S188.1,37.12,261.66,37.12"/><path class="cls-1" d="M261.66,558.44c-36.78,0-66.59-116.7-66.59-260.66S224.88,37.12,261.66,37.12"/><line class="cls-1" x1="261.66" x2="261.66" y2="588.56"/><line class="cls-1" x1="1" y1="297.78" x2="522.32" y2="297.78"/><line class="cls-2" x1="9.21" y1="232.62" x2="514.11" y2="232.62"/><line class="cls-2" x1="35.88" y1="167.45" x2="487.44" y2="167.45"/><line class="cls-2" x1="89.25" y1="102.29" x2="434.07" y2="102.29"/><line class="cls-2" x1="514.11" y1="362.58" x2="9.21" y2="362.58"/><line class="cls-2" x1="448.61" y1="427.74" x2="35.87" y2="427.74"/><line class="cls-2" x1="399.37" y1="492.91" x2="89.25" y2="492.91"/></g></g></svg>