<?xml version="1.0" encoding="utf-8"?>
<!-- Generator: Adobe Illustrator 24.1.2, SVG Export Plug-In . SVG Version: 6.00 Build 0)  -->
<svg version="1.1" xmlns="http://www.w3.org/2000/svg" xmlns:xlink="http://www.w3.org/1999/xlink" x="0px" y="0px"
	 viewBox="0 0 1080 1080" style="enable-background:new 0 0 1080 1080;" xml:space="preserve">
<style type="text/css">
	.st0{display:none;}
	.st1{display:inline;}
	.st2{fill:none;stroke:#000000;stroke-width:2;stroke-miterlimit:10;}
</style>
<g id="Arrow" class="st0">
	<g class="st1">
		<polygon class="st2" points="541.19,104.84 570.15,54.68 512.23,54.68 		"/>
		<line class="st2" x1="541.19" y1="227.15" x2="541.19" y2="151.91"/>
	</g>
</g>
<g id="Hours" class="st0">
	<g class="st1">
		<g>
			<line class="st2" x1="934.65" y1="585.01" x2="934.62" y2="585.01"/>
			<line class="st2" x1="898.13" y1="585.01" x2="934.62" y2="585.01"/>
			<line class="st2" x1="184.25" y1="585.01" x2="147.76" y2="585.01"/>
			<line class="st2" x1="147.74" y1="585.01" x2="147.76" y2="585.01"/>
			<line class="st2" x1="343.57" y1="242.71" x2="362.3" y2="275.16"/>
			<line class="st2" x1="343.56" y1="242.69" x2="343.57" y2="242.71"/>
			<line class="st2" x1="719.3" y1="893.5" x2="737.07" y2="924.29"/>
			<line class="st2" x1="882.86" y1="387.74" x2="882.86" y2="387.74"/>
			<line class="st2" x1="882.86" y1="387.74" x2="850.76" y2="406.28"/>
			<line class="st2" x1="232.42" y1="763.28" x2="201.3" y2="781.25"/>
			<line class="st2" x1="201.28" y1="781.26" x2="201.3" y2="781.25"/>
			<line class="st2" x1="199.53" y1="387.74" x2="231.62" y2="406.28"/>
			<line class="st2" x1="199.53" y1="387.74" x2="199.52" y2="387.74"/>
			<line class="st2" x1="849.96" y1="763.28" x2="881.09" y2="781.25"/>
			<line class="st2" x1="881.09" y1="781.25" x2="881.11" y2="781.26"/>
			<line class="st2" x1="738.82" y1="242.7" x2="738.82" y2="242.71"/>
			<line class="st2" x1="738.82" y1="242.71" x2="720.08" y2="275.16"/>
			<line class="st2" x1="345.31" y1="924.29" x2="363.08" y2="893.5"/>
			<line class="st2" x1="541.19" y1="941.05" x2="541.19" y2="976.44"/>
		</g>
		<line class="st2" x1="541.19" y1="228.32" x2="541.19" y2="192.93"/>
	</g>
</g>
<g id="Min" class="st0">
	<g class="st1">
		<line class="st2" x1="858.76" y1="551.03" x2="821.49" y2="554.95"/>
		<line class="st2" x1="260.9" y1="613.87" x2="223.62" y2="617.79"/>
		<line class="st2" x1="844.88" y1="485.74" x2="809.29" y2="497.3"/>
		<line class="st2" x1="273.09" y1="671.52" x2="237.5" y2="683.09"/>
		<line class="st2" x1="297.09" y1="725.34" x2="264.65" y2="744.07"/>
		<line class="st2" x1="817.73" y1="424.75" x2="785.29" y2="443.48"/>
		<line class="st2" x1="778.49" y1="370.75" x2="750.62" y2="395.84"/>
		<line class="st2" x1="331.76" y1="772.98" x2="303.89" y2="798.08"/>
		<line class="st2" x1="728.88" y1="326.08" x2="706.85" y2="356.4"/>
		<line class="st2" x1="353.5" y1="842.74" x2="375.53" y2="812.42"/>
		<line class="st2" x1="671.07" y1="292.7" x2="655.84" y2="326.9"/>
		<line class="st2" x1="411.31" y1="876.12" x2="426.54" y2="841.93"/>
		<line class="st2" x1="474.8" y1="896.75" x2="482.59" y2="860.12"/>
		<line class="st2" x1="607.58" y1="272.07" x2="599.8" y2="308.7"/>
		<line class="st2" x1="541.19" y1="302.59" x2="541.19" y2="265.09"/>
		<line class="st2" x1="541.19" y1="866.23" x2="541.19" y2="903.73"/>
		<line class="st2" x1="607.58" y1="896.75" x2="599.8" y2="860.12"/>
		<line class="st2" x1="474.8" y1="272.07" x2="482.59" y2="308.7"/>
		<line class="st2" x1="411.31" y1="292.7" x2="426.54" y2="326.9"/>
		<line class="st2" x1="671.07" y1="876.12" x2="655.84" y2="841.93"/>
		<line class="st2" x1="375.53" y1="356.4" x2="353.5" y2="326.08"/>
		<line class="st2" x1="728.88" y1="842.74" x2="706.85" y2="812.42"/>
		<line class="st2" x1="750.62" y1="772.98" x2="778.49" y2="798.08"/>
		<line class="st2" x1="303.89" y1="370.75" x2="331.76" y2="395.84"/>
		<line class="st2" x1="264.65" y1="424.75" x2="297.09" y2="443.48"/>
		<line class="st2" x1="785.29" y1="725.34" x2="817.73" y2="744.07"/>
		<line class="st2" x1="237.5" y1="485.74" x2="273.09" y2="497.3"/>
		<line class="st2" x1="809.29" y1="671.52" x2="844.88" y2="683.09"/>
		<line class="st2" x1="821.49" y1="613.87" x2="858.76" y2="617.79"/>
		<line class="st2" x1="223.62" y1="551.03" x2="260.9" y2="554.95"/>
	</g>
</g>
<g id="Sec">
	<g>
		<line class="st2" x1="299.03" y1="609.86" x2="336.23" y2="605.95"/>
		<line class="st2" x1="783.18" y1="558.98" x2="745.98" y2="562.89"/>
		<line class="st2" x1="309.42" y1="659.72" x2="345" y2="648.16"/>
		<line class="st2" x1="772.49" y1="509.26" x2="736.91" y2="520.82"/>
		<line class="st2" x1="751.66" y1="462.9" x2="719.26" y2="481.6"/>
		<line class="st2" x1="330.02" y1="706.33" x2="362.42" y2="687.63"/>
		<line class="st2" x1="721.67" y1="421.91" x2="693.88" y2="446.93"/>
		<line class="st2" x1="359.92" y1="747.63" x2="387.71" y2="722.6"/>
		<line class="st2" x1="683.88" y1="388.02" x2="661.89" y2="418.28"/>
		<line class="st2" x1="397.74" y1="781.85" x2="419.73" y2="751.59"/>
		<line class="st2" x1="441.87" y1="807.48" x2="457.09" y2="773.31"/>
		<line class="st2" x1="639.91" y1="362.68" x2="624.7" y2="396.85"/>
		<line class="st2" x1="490.42" y1="823.29" x2="498.19" y2="786.7"/>
		<line class="st2" x1="591.64" y1="347.06" x2="583.86" y2="383.65"/>
		<line class="st2" x1="541.19" y1="341.81" x2="541.19" y2="379.21"/>
		<line class="st2" x1="541.19" y1="828.61" x2="541.19" y2="791.21"/>
		<line class="st2" x1="591.97" y1="823.29" x2="584.19" y2="786.7"/>
		<line class="st2" x1="490.74" y1="347.06" x2="498.52" y2="383.65"/>
		<line class="st2" x1="442.47" y1="362.68" x2="457.69" y2="396.85"/>
		<line class="st2" x1="640.51" y1="807.48" x2="625.29" y2="773.31"/>
		<line class="st2" x1="684.64" y1="781.85" x2="662.65" y2="751.59"/>
		<line class="st2" x1="398.5" y1="388.02" x2="420.49" y2="418.28"/>
		<line class="st2" x1="360.71" y1="421.91" x2="388.5" y2="446.93"/>
		<line class="st2" x1="722.46" y1="747.63" x2="694.67" y2="722.6"/>
		<line class="st2" x1="330.72" y1="462.9" x2="363.12" y2="481.6"/>
		<line class="st2" x1="752.36" y1="706.33" x2="719.97" y2="687.63"/>
		<line class="st2" x1="772.96" y1="659.72" x2="737.38" y2="648.16"/>
		<line class="st2" x1="309.89" y1="509.26" x2="345.47" y2="520.82"/>
		<line class="st2" x1="783.36" y1="609.86" x2="746.16" y2="605.95"/>
		<line class="st2" x1="299.2" y1="558.98" x2="336.4" y2="562.89"/>
	</g>
</g>
</svg>
