<?xml version="1.0" encoding="utf-8"?>
<!-- Generator: Adobe Illustrator 24.1.2, SVG Export Plug-In . SVG Version: 6.00 Build 0)  -->
<svg version="1.1" xmlns="http://www.w3.org/2000/svg" xmlns:xlink="http://www.w3.org/1999/xlink" x="0px" y="0px"
	 viewBox="0 0 1080 1080" style="enable-background:new 0 0 1080 1080;" xml:space="preserve">
<style type="text/css">
	.st0{display:none;}
	.st1{display:inline;}
	.st2{fill:none;stroke:#000000;stroke-width:2;stroke-miterlimit:10;}
</style>
<g id="Min">
	<g>
		<line class="st2" x1="858.76" y1="551.03" x2="821.49" y2="554.95"/>
		<line class="st2" x1="260.9" y1="613.87" x2="223.62" y2="617.79"/>
		<line class="st2" x1="844.88" y1="485.74" x2="809.29" y2="497.3"/>
		<line class="st2" x1="273.09" y1="671.52" x2="237.5" y2="683.09"/>
		<line class="st2" x1="297.09" y1="725.34" x2="264.65" y2="744.07"/>
		<line class="st2" x1="817.73" y1="424.75" x2="785.29" y2="443.48"/>
		<line class="st2" x1="778.49" y1="370.75" x2="750.62" y2="395.84"/>
		<line class="st2" x1="331.76" y1="772.98" x2="303.89" y2="798.08"/>
		<line class="st2" x1="728.88" y1="326.08" x2="706.85" y2="356.4"/>
		<line class="st2" x1="353.5" y1="842.74" x2="375.53" y2="812.42"/>
		<line class="st2" x1="671.07" y1="292.7" x2="655.84" y2="326.9"/>
		<line class="st2" x1="411.31" y1="876.12" x2="426.54" y2="841.93"/>
		<line class="st2" x1="474.8" y1="896.75" x2="482.59" y2="860.12"/>
		<line class="st2" x1="607.58" y1="272.07" x2="599.8" y2="308.7"/>
		<line class="st2" x1="541.19" y1="302.59" x2="541.19" y2="265.09"/>
		<line class="st2" x1="541.19" y1="866.23" x2="541.19" y2="903.73"/>
		<line class="st2" x1="607.58" y1="896.75" x2="599.8" y2="860.12"/>
		<line class="st2" x1="474.8" y1="272.07" x2="482.59" y2="308.7"/>
		<line class="st2" x1="411.31" y1="292.7" x2="426.54" y2="326.9"/>
		<line class="st2" x1="671.07" y1="876.12" x2="655.84" y2="841.93"/>
		<line class="st2" x1="375.53" y1="356.4" x2="353.5" y2="326.08"/>
		<line class="st2" x1="728.88" y1="842.74" x2="706.85" y2="812.42"/>
		<line class="st2" x1="750.62" y1="772.98" x2="778.49" y2="798.08"/>
		<line class="st2" x1="303.89" y1="370.75" x2="331.76" y2="395.84"/>
		<line class="st2" x1="264.65" y1="424.75" x2="297.09" y2="443.48"/>
		<line class="st2" x1="785.29" y1="725.34" x2="817.73" y2="744.07"/>
		<line class="st2" x1="237.5" y1="485.74" x2="273.09" y2="497.3"/>
		<line class="st2" x1="809.29" y1="671.52" x2="844.88" y2="683.09"/>
		<line class="st2" x1="821.49" y1="613.87" x2="858.76" y2="617.79"/>
		<line class="st2" x1="223.62" y1="551.03" x2="260.9" y2="554.95"/>
	</g>
</g>
</svg>
