<?xml version="1.0" encoding="utf-8"?>
<!-- Generator: Adobe Illustrator 24.1.2, SVG Export Plug-In . SVG Version: 6.00 Build 0)  -->
<svg version="1.1" xmlns="http://www.w3.org/2000/svg" xmlns:xlink="http://www.w3.org/1999/xlink" x="0px" y="0px"
	 viewBox="0 0 1080 1080" style="enable-background:new 0 0 1080 1080;" xml:space="preserve">
<style type="text/css">
	.st2{fill:none;stroke:#000000;stroke-width:2;stroke-miterlimit:10;}
</style>
<g id="Hours">
	<g>
		<line class="st2" x1="934.65" y1="585.01" x2="934.62" y2="585.01"/>
		<line class="st2" x1="898.13" y1="585.01" x2="934.62" y2="585.01"/>
		<line class="st2" x1="184.25" y1="585.01" x2="147.76" y2="585.01"/>
		<line class="st2" x1="147.74" y1="585.01" x2="147.76" y2="585.01"/>
		<line class="st2" x1="343.57" y1="242.71" x2="362.3" y2="275.16"/>
		<line class="st2" x1="343.56" y1="242.69" x2="343.57" y2="242.71"/>
		<line class="st2" x1="719.3" y1="893.5" x2="737.07" y2="924.29"/>
		<line class="st2" x1="882.86" y1="387.74" x2="882.86" y2="387.74"/>
		<line class="st2" x1="882.86" y1="387.74" x2="850.76" y2="406.28"/>
		<line class="st2" x1="232.42" y1="763.28" x2="201.3" y2="781.25"/>
		<line class="st2" x1="201.28" y1="781.26" x2="201.3" y2="781.25"/>
		<line class="st2" x1="199.53" y1="387.74" x2="231.62" y2="406.28"/>
		<line class="st2" x1="199.53" y1="387.74" x2="199.52" y2="387.74"/>
		<line class="st2" x1="849.96" y1="763.28" x2="881.09" y2="781.25"/>
		<line class="st2" x1="881.09" y1="781.25" x2="881.11" y2="781.26"/>
		<line class="st2" x1="738.82" y1="242.7" x2="738.82" y2="242.71"/>
		<line class="st2" x1="738.82" y1="242.71" x2="720.08" y2="275.16"/>
		<line class="st2" x1="345.31" y1="924.29" x2="363.08" y2="893.5"/>
		<line class="st2" x1="541.19" y1="941.05" x2="541.19" y2="976.44"/>
		<line class="st2" x1="541.19" y1="228.32" x2="541.19" y2="192.93"/>
	</g>
</g>
</svg>
