<?xml version="1.0" encoding="utf-8"?>
<!-- Generator: Adobe Illustrator 24.1.2, SVG Export Plug-In . SVG Version: 6.00 Build 0)  -->
<svg version="1.1" xmlns="http://www.w3.org/2000/svg" xmlns:xlink="http://www.w3.org/1999/xlink" x="0px" y="0px"
	 viewBox="0 0 788 788" style="enable-background:new 0 0 788 788;" xml:space="preserve">
<style type="text/css">
	.st2{fill:none;stroke:#ffffff;stroke-width:3;stroke-miterlimit:10;}
</style>
<g id="Hours">
	<g>
		<line class="st2" x1="787.65" y1="393.01" x2="787.62" y2="393.01"/>
		<line class="st2" x1="751.13" y1="393.01" x2="787.62" y2="393.01"/>
		<line class="st2" x1="37.25" y1="393.01" x2="0.76" y2="393.01"/>
		<line class="st2" x1="0.74" y1="393.01" x2="0.76" y2="393.01"/>
		<line class="st2" x1="196.57" y1="50.71" x2="215.3" y2="83.16"/>
		<line class="st2" x1="196.56" y1="50.69" x2="196.57" y2="50.71"/>
		<line class="st2" x1="572.3" y1="701.5" x2="590.07" y2="732.29"/>
		<line class="st2" x1="735.86" y1="195.74" x2="735.86" y2="195.74"/>
		<line class="st2" x1="735.86" y1="195.74" x2="703.76" y2="214.28"/>
		<line class="st2" x1="85.42" y1="571.28" x2="54.3" y2="589.25"/>
		<line class="st2" x1="54.28" y1="589.26" x2="54.3" y2="589.25"/>
		<line class="st2" x1="52.53" y1="195.74" x2="84.62" y2="214.28"/>
		<line class="st2" x1="52.53" y1="195.74" x2="52.52" y2="195.74"/>
		<line class="st2" x1="702.96" y1="571.28" x2="734.09" y2="589.25"/>
		<line class="st2" x1="734.09" y1="589.25" x2="734.11" y2="589.26"/>
		<line class="st2" x1="591.82" y1="50.7" x2="591.82" y2="50.71"/>
		<line class="st2" x1="591.82" y1="50.71" x2="573.08" y2="83.16"/>
		<line class="st2" x1="198.31" y1="732.29" x2="216.08" y2="701.5"/>
		<line class="st2" x1="394.19" y1="749.05" x2="394.19" y2="784.44"/>
		<line class="st2" x1="394.19" y1="36.32" x2="394.19" y2="0.93"/>
	</g>
</g>
</svg>
