<?xml version="1.0" encoding="utf-8"?>
<!-- Generator: Adobe Illustrator 24.1.2, SVG Export Plug-In . SVG Version: 6.00 Build 0)  -->
<svg version="1.1" xmlns="http://www.w3.org/2000/svg" xmlns:xlink="http://www.w3.org/1999/xlink" x="0px" y="0px"
	 viewBox="0 0 788 788" style="enable-background:new 0 0 788 788;" xml:space="preserve">
<style type="text/css">
	.st2{fill:none;stroke:#ffffff;stroke-width:3;stroke-miterlimit:10;}
</style>
<g id="Min">
	<g>
		<line class="st2" x1="711.76" y1="359.03" x2="674.49" y2="362.95"/>
		<line class="st2" x1="113.9" y1="421.87" x2="76.62" y2="425.79"/>
		<line class="st2" x1="697.88" y1="293.74" x2="662.29" y2="305.3"/>
		<line class="st2" x1="126.09" y1="479.52" x2="90.5" y2="491.09"/>
		<line class="st2" x1="150.09" y1="533.34" x2="117.65" y2="552.07"/>
		<line class="st2" x1="670.73" y1="232.75" x2="638.29" y2="251.48"/>
		<line class="st2" x1="631.49" y1="178.75" x2="603.62" y2="203.84"/>
		<line class="st2" x1="184.76" y1="580.98" x2="156.89" y2="606.08"/>
		<line class="st2" x1="581.88" y1="134.08" x2="559.85" y2="164.4"/>
		<line class="st2" x1="206.5" y1="650.74" x2="228.53" y2="620.42"/>
		<line class="st2" x1="524.07" y1="100.7" x2="508.84" y2="134.9"/>
		<line class="st2" x1="264.31" y1="684.12" x2="279.54" y2="649.93"/>
		<line class="st2" x1="327.8" y1="704.75" x2="335.59" y2="668.12"/>
		<line class="st2" x1="460.58" y1="80.07" x2="452.8" y2="116.7"/>
		<line class="st2" x1="394.19" y1="110.59" x2="394.19" y2="73.09"/>
		<line class="st2" x1="394.19" y1="674.23" x2="394.19" y2="711.73"/>
		<line class="st2" x1="460.58" y1="704.75" x2="452.8" y2="668.12"/>
		<line class="st2" x1="327.8" y1="80.07" x2="335.59" y2="116.7"/>
		<line class="st2" x1="264.31" y1="100.7" x2="279.54" y2="134.9"/>
		<line class="st2" x1="524.07" y1="684.12" x2="508.84" y2="649.93"/>
		<line class="st2" x1="228.53" y1="164.4" x2="206.5" y2="134.08"/>
		<line class="st2" x1="581.88" y1="650.74" x2="559.85" y2="620.42"/>
		<line class="st2" x1="603.62" y1="580.98" x2="631.49" y2="606.08"/>
		<line class="st2" x1="156.89" y1="178.75" x2="184.76" y2="203.84"/>
		<line class="st2" x1="117.65" y1="232.75" x2="150.09" y2="251.48"/>
		<line class="st2" x1="638.29" y1="533.34" x2="670.73" y2="552.07"/>
		<line class="st2" x1="90.5" y1="293.74" x2="126.09" y2="305.3"/>
		<line class="st2" x1="662.29" y1="479.52" x2="697.88" y2="491.09"/>
		<line class="st2" x1="674.49" y1="421.87" x2="711.76" y2="425.79"/>
		<line class="st2" x1="76.62" y1="359.03" x2="113.9" y2="362.95"/>
	</g>
</g>
</svg>
