<?xml version="1.0" encoding="utf-8"?>
<!-- Generator: Adobe Illustrator 24.1.2, SVG Export Plug-In . SVG Version: 6.00 Build 0)  -->
<svg version="1.1" xmlns="http://www.w3.org/2000/svg" xmlns:xlink="http://www.w3.org/1999/xlink" x="0px" y="0px"
	 viewBox="0 0 788 788" style="enable-background:new 0 0 788 788;" xml:space="preserve">
<style type="text/css">
	.st2{fill:none;stroke:#000000;stroke-width:3;stroke-miterlimit:10;}
</style>
<g id="Sec">
	<g>
		<line class="st2" x1="152.03" y1="417.86" x2="189.23" y2="413.95"/>
		<line class="st2" x1="636.18" y1="366.98" x2="598.98" y2="370.89"/>
		<line class="st2" x1="162.42" y1="467.72" x2="198" y2="456.16"/>
		<line class="st2" x1="625.49" y1="317.26" x2="589.91" y2="328.82"/>
		<line class="st2" x1="604.66" y1="270.9" x2="572.26" y2="289.6"/>
		<line class="st2" x1="183.02" y1="514.33" x2="215.42" y2="495.63"/>
		<line class="st2" x1="574.67" y1="229.91" x2="546.88" y2="254.93"/>
		<line class="st2" x1="212.92" y1="555.63" x2="240.71" y2="530.6"/>
		<line class="st2" x1="536.88" y1="196.02" x2="514.89" y2="226.28"/>
		<line class="st2" x1="250.74" y1="589.85" x2="272.73" y2="559.59"/>
		<line class="st2" x1="294.87" y1="615.48" x2="310.09" y2="581.31"/>
		<line class="st2" x1="492.91" y1="170.68" x2="477.7" y2="204.85"/>
		<line class="st2" x1="343.42" y1="631.29" x2="351.19" y2="594.7"/>
		<line class="st2" x1="444.64" y1="155.06" x2="436.86" y2="191.65"/>
		<line class="st2" x1="394.19" y1="149.81" x2="394.19" y2="187.21"/>
		<line class="st2" x1="394.19" y1="636.61" x2="394.19" y2="599.21"/>
		<line class="st2" x1="444.97" y1="631.29" x2="437.19" y2="594.7"/>
		<line class="st2" x1="343.74" y1="155.06" x2="351.52" y2="191.65"/>
		<line class="st2" x1="295.47" y1="170.68" x2="310.69" y2="204.85"/>
		<line class="st2" x1="493.51" y1="615.48" x2="478.29" y2="581.31"/>
		<line class="st2" x1="537.64" y1="589.85" x2="515.65" y2="559.59"/>
		<line class="st2" x1="251.5" y1="196.02" x2="273.49" y2="226.28"/>
		<line class="st2" x1="213.71" y1="229.91" x2="241.5" y2="254.93"/>
		<line class="st2" x1="575.46" y1="555.63" x2="547.67" y2="530.6"/>
		<line class="st2" x1="183.72" y1="270.9" x2="216.12" y2="289.6"/>
		<line class="st2" x1="605.36" y1="514.33" x2="572.97" y2="495.63"/>
		<line class="st2" x1="625.96" y1="467.72" x2="590.38" y2="456.16"/>
		<line class="st2" x1="162.89" y1="317.26" x2="198.47" y2="328.82"/>
		<line class="st2" x1="636.36" y1="417.86" x2="599.16" y2="413.95"/>
		<line class="st2" x1="152.2" y1="366.98" x2="189.4" y2="370.89"/>
	</g>
</g>
</svg>
