<?xml version="1.0" encoding="utf-8"?>
<!-- Generator: Adobe Illustrator 24.1.2, SVG Export Plug-In . SVG Version: 6.00 Build 0)  -->
<svg version="1.1" xmlns="http://www.w3.org/2000/svg" xmlns:xlink="http://www.w3.org/1999/xlink" x="0px" y="0px"
	 viewBox="0 0 1080 1080" style="enable-background:new 0 0 1080 1080;" xml:space="preserve">
<style type="text/css">
	.st2{fill:none;stroke:#000000;stroke-width:2;stroke-miterlimit:10;}
</style>
<g id="Sec">
	<g>
		<line class="st2" x1="299.03" y1="609.86" x2="336.23" y2="605.95"/>
		<line class="st2" x1="783.18" y1="558.98" x2="745.98" y2="562.89"/>
		<line class="st2" x1="309.42" y1="659.72" x2="345" y2="648.16"/>
		<line class="st2" x1="772.49" y1="509.26" x2="736.91" y2="520.82"/>
		<line class="st2" x1="751.66" y1="462.9" x2="719.26" y2="481.6"/>
		<line class="st2" x1="330.02" y1="706.33" x2="362.42" y2="687.63"/>
		<line class="st2" x1="721.67" y1="421.91" x2="693.88" y2="446.93"/>
		<line class="st2" x1="359.92" y1="747.63" x2="387.71" y2="722.6"/>
		<line class="st2" x1="683.88" y1="388.02" x2="661.89" y2="418.28"/>
		<line class="st2" x1="397.74" y1="781.85" x2="419.73" y2="751.59"/>
		<line class="st2" x1="441.87" y1="807.48" x2="457.09" y2="773.31"/>
		<line class="st2" x1="639.91" y1="362.68" x2="624.7" y2="396.85"/>
		<line class="st2" x1="490.42" y1="823.29" x2="498.19" y2="786.7"/>
		<line class="st2" x1="591.64" y1="347.06" x2="583.86" y2="383.65"/>
		<line class="st2" x1="541.19" y1="341.81" x2="541.19" y2="379.21"/>
		<line class="st2" x1="541.19" y1="828.61" x2="541.19" y2="791.21"/>
		<line class="st2" x1="591.97" y1="823.29" x2="584.19" y2="786.7"/>
		<line class="st2" x1="490.74" y1="347.06" x2="498.52" y2="383.65"/>
		<line class="st2" x1="442.47" y1="362.68" x2="457.69" y2="396.85"/>
		<line class="st2" x1="640.51" y1="807.48" x2="625.29" y2="773.31"/>
		<line class="st2" x1="684.64" y1="781.85" x2="662.65" y2="751.59"/>
		<line class="st2" x1="398.5" y1="388.02" x2="420.49" y2="418.28"/>
		<line class="st2" x1="360.71" y1="421.91" x2="388.5" y2="446.93"/>
		<line class="st2" x1="722.46" y1="747.63" x2="694.67" y2="722.6"/>
		<line class="st2" x1="330.72" y1="462.9" x2="363.12" y2="481.6"/>
		<line class="st2" x1="752.36" y1="706.33" x2="719.97" y2="687.63"/>
		<line class="st2" x1="772.96" y1="659.72" x2="737.38" y2="648.16"/>
		<line class="st2" x1="309.89" y1="509.26" x2="345.47" y2="520.82"/>
		<line class="st2" x1="783.36" y1="609.86" x2="746.16" y2="605.95"/>
		<line class="st2" x1="299.2" y1="558.98" x2="336.4" y2="562.89"/>
	</g>
</g>
</svg>
